<svg width="343" height="398" viewBox="0 0 343 398" fill="none" xmlns="http://www.w3.org/2000/svg">
<g filter="url(#filter0_ddi_413_774)">
<rect x="45" y="39" width="253" height="309" rx="20" fill="black"/>
<rect x="45.7107" y="39.7107" width="251.579" height="307.579" rx="19.2893" stroke="white" stroke-width="1.42135"/>
</g>
<line x1="45" y1="281.997" x2="298" y2="281.997" stroke="white" stroke-opacity="0.2" stroke-width="0.640388"/>
<path d="M65.6356 306.953H66.7114V302.111L68.6569 306.953H69.0424L70.9521 302.111V306.953H72.1445V300.542H70.5665L68.9169 304.917L67.2314 300.542H65.6356V306.953ZM74.7065 307.042C75.4237 307.042 75.8361 306.782 76.1409 306.379V306.953H77.2078V303.877C77.2078 302.595 76.383 302.165 75.334 302.165C74.2851 302.165 73.4154 302.622 73.3258 303.716H74.3747C74.4285 303.25 74.7065 302.981 75.2713 302.981C75.9078 302.981 76.123 303.295 76.123 303.922V304.164H75.5403C74.1954 304.164 73.1375 304.559 73.1375 305.653C73.1375 306.63 73.8458 307.042 74.7065 307.042ZM74.9665 306.262C74.4285 306.262 74.2134 306.002 74.2134 305.608C74.2134 305.034 74.7423 304.846 75.5672 304.846H76.123V305.312C76.123 305.913 75.6299 306.262 74.9665 306.262ZM78.4512 306.953H79.536V304.191C79.536 303.447 80.0291 303.071 80.6388 303.071C81.2843 303.071 81.5712 303.393 81.5712 304.102V306.953H82.656V304.003C82.656 302.712 81.9926 302.165 81.0512 302.165C80.2802 302.165 79.7602 302.551 79.536 303.008V302.264H78.4512V306.953ZM85.134 307.042C85.8513 307.042 86.2637 306.782 86.5685 306.379V306.953H87.6354V303.877C87.6354 302.595 86.8106 302.165 85.7616 302.165C84.7127 302.165 83.843 302.622 83.7534 303.716H84.8023C84.8561 303.25 85.134 302.981 85.6989 302.981C86.3354 302.981 86.5506 303.295 86.5506 303.922V304.164H85.9678C84.623 304.164 83.5651 304.559 83.5651 305.653C83.5651 306.63 84.2734 307.042 85.134 307.042ZM85.394 306.262C84.8561 306.262 84.6409 306.002 84.6409 305.608C84.6409 305.034 85.1699 304.846 85.9947 304.846H86.5506V305.312C86.5506 305.913 86.0575 306.262 85.394 306.262ZM90.8781 308.674C92.3305 308.674 93.2539 307.984 93.2629 306.603V302.264H92.1781V302.981C91.9091 302.515 91.4429 302.165 90.6719 302.165C89.4615 302.165 88.565 303.151 88.565 304.469V304.532C88.565 305.886 89.4705 306.764 90.645 306.764C91.3353 306.764 91.9181 306.343 92.1781 305.895V306.585C92.1781 307.428 91.7119 307.849 90.8691 307.849C90.1608 307.849 89.8022 307.58 89.7126 307.114H88.6188C88.7443 308.011 89.4077 308.674 90.8781 308.674ZM90.9139 305.931C90.2146 305.931 89.6767 305.393 89.6767 304.523V304.451C89.6767 303.6 90.1429 303.017 90.9498 303.017C91.7298 303.017 92.2139 303.546 92.2139 304.433V304.496C92.2139 305.393 91.667 305.931 90.9139 305.931ZM96.6143 307.042C97.8156 307.042 98.6136 306.504 98.766 305.518H97.717C97.6363 305.975 97.2956 306.235 96.6412 306.235C95.8343 306.235 95.386 305.733 95.3501 304.846H98.7839V304.532C98.7839 302.855 97.7349 302.165 96.5694 302.165C95.2336 302.165 94.2384 303.133 94.2384 304.586V304.657C94.2384 306.137 95.2336 307.042 96.6143 307.042ZM95.3681 304.12C95.4757 303.393 95.915 302.954 96.5694 302.954C97.2418 302.954 97.6543 303.313 97.708 304.12H95.3681ZM99.7529 306.953H100.838V304.146C100.838 303.429 101.331 303.071 101.869 303.071C102.398 303.071 102.702 303.366 102.702 304.057V306.953H103.787V304.146C103.787 303.429 104.28 303.071 104.818 303.071C105.356 303.071 105.652 303.366 105.652 304.057V306.953H106.737V303.985C106.737 302.694 106.038 302.165 105.177 302.165C104.594 302.165 103.949 302.425 103.59 303.008C103.357 302.425 102.873 302.165 102.263 302.165C101.573 302.165 101.062 302.542 100.838 302.981V302.264H99.7529V306.953ZM110.045 307.042C111.246 307.042 112.044 306.504 112.197 305.518H111.148C111.067 305.975 110.726 306.235 110.072 306.235C109.265 306.235 108.817 305.733 108.781 304.846H112.215V304.532C112.215 302.855 111.166 302.165 110 302.165C108.664 302.165 107.669 303.133 107.669 304.586V304.657C107.669 306.137 108.664 307.042 110.045 307.042ZM108.799 304.12C108.906 303.393 109.346 302.954 110 302.954C110.672 302.954 111.085 303.313 111.139 304.12H108.799ZM113.183 306.953H114.268V304.191C114.268 303.447 114.761 303.071 115.371 303.071C116.017 303.071 116.303 303.393 116.303 304.102V306.953H117.388V304.003C117.388 302.712 116.725 302.165 115.783 302.165C115.012 302.165 114.492 302.551 114.268 303.008V302.264H113.183V306.953ZM120.234 307.033C120.566 307.033 120.799 306.98 120.969 306.917V306.056C120.817 306.119 120.655 306.146 120.44 306.146C120.099 306.146 119.902 305.957 119.902 305.545V303.08H120.933V302.264H119.902V301.233H118.817V302.264H118.19V303.08H118.817V305.644C118.817 306.531 119.301 307.033 120.234 307.033ZM124.272 306.953H125.357V303.08H126.424V302.264H125.357V301.591C125.357 301.188 125.536 300.901 125.976 300.901C126.173 300.901 126.343 300.937 126.469 300.982V300.139C126.271 300.076 126.11 300.049 125.85 300.049C124.846 300.049 124.272 300.605 124.272 301.636V302.264H123.636V303.08H124.272V306.953ZM129.219 307.042C130.42 307.042 131.218 306.504 131.371 305.518H130.322C130.241 305.975 129.9 306.235 129.246 306.235C128.439 306.235 127.991 305.733 127.955 304.846H131.389V304.532C131.389 302.855 130.34 302.165 129.174 302.165C127.838 302.165 126.843 303.133 126.843 304.586V304.657C126.843 306.137 127.838 307.042 129.219 307.042ZM127.973 304.12C128.08 303.393 128.52 302.954 129.174 302.954C129.847 302.954 130.259 303.313 130.313 304.12H127.973ZM134.42 307.042C135.621 307.042 136.419 306.504 136.571 305.518H135.522C135.442 305.975 135.101 306.235 134.447 306.235C133.64 306.235 133.191 305.733 133.156 304.846H136.589V304.532C136.589 302.855 135.54 302.165 134.375 302.165C133.039 302.165 132.044 303.133 132.044 304.586V304.657C132.044 306.137 133.039 307.042 134.42 307.042ZM133.173 304.12C133.281 303.393 133.72 302.954 134.375 302.954C135.047 302.954 135.46 303.313 135.513 304.12H133.173ZM138.24 307.015C138.643 307.015 138.957 306.711 138.957 306.316C138.957 305.922 138.643 305.608 138.24 305.608C137.845 305.608 137.531 305.922 137.531 306.316C137.531 306.711 137.845 307.015 138.24 307.015ZM138.24 304.397C138.643 304.397 138.957 304.084 138.957 303.689C138.957 303.295 138.643 302.99 138.24 302.99C137.845 302.99 137.531 303.295 137.531 303.689C137.531 304.084 137.845 304.397 138.24 304.397Z" fill="white" fill-opacity="0.55"/>
<path d="M65.6356 325.524H66.828V323.085H67.7245C69.0962 323.085 70.0734 322.485 70.0734 321.131V321.095C70.0734 319.75 69.1321 319.114 67.6976 319.114H65.6356V325.524ZM66.828 322.225V320.037H67.6976C68.4597 320.037 68.9079 320.333 68.9079 321.095V321.131C68.9079 321.839 68.4866 322.225 67.6976 322.225H66.828ZM72.9399 325.614C74.1413 325.614 74.9392 325.076 75.0916 324.089H74.0427C73.962 324.547 73.6213 324.807 72.9668 324.807C72.1599 324.807 71.7117 324.305 71.6758 323.417H75.1096V323.103C75.1096 321.427 74.0606 320.736 72.8951 320.736C71.5593 320.736 70.5641 321.705 70.5641 323.157V323.229C70.5641 324.708 71.5593 325.614 72.9399 325.614ZM71.6937 322.691C71.8013 321.965 72.2406 321.525 72.8951 321.525C73.5675 321.525 73.9799 321.884 74.0337 322.691H71.6937ZM76.0785 325.524H77.1633V323.085C77.1633 322.09 77.7371 321.785 78.6875 321.776V320.763C77.8985 320.772 77.4592 321.122 77.1633 321.714V320.835H76.0785V325.524ZM79.9178 325.524H81.0026V321.651H82.0695V320.835H81.0026V320.163C81.0026 319.759 81.1819 319.472 81.6212 319.472C81.8184 319.472 81.9888 319.508 82.1143 319.553V318.71C81.9171 318.647 81.7557 318.621 81.4957 318.621C80.4916 318.621 79.9178 319.176 79.9178 320.207V320.835H79.2812V321.651H79.9178V325.524ZM84.9005 324.771C84.0757 324.771 83.6005 324.17 83.6005 323.211V323.139C83.6005 322.171 84.0936 321.588 84.9005 321.588C85.7074 321.588 86.1915 322.18 86.1915 323.148V323.211C86.1915 324.17 85.7074 324.771 84.9005 324.771ZM84.8915 325.614C86.2722 325.614 87.3032 324.663 87.3032 323.202V323.13C87.3032 321.696 86.2722 320.736 84.9005 320.736C83.5198 320.736 82.4888 321.705 82.4888 323.157V323.229C82.4888 324.654 83.5109 325.614 84.8915 325.614ZM88.2834 325.524H89.3682V323.085C89.3682 322.09 89.942 321.785 90.8924 321.776V320.763C90.1034 320.772 89.6641 321.122 89.3682 321.714V320.835H88.2834V325.524ZM91.8468 325.524H92.9316V322.718C92.9316 322.001 93.4247 321.642 93.9627 321.642C94.4916 321.642 94.7965 321.938 94.7965 322.628V325.524H95.8813V322.718C95.8813 322.001 96.3744 321.642 96.9123 321.642C97.4502 321.642 97.7461 321.938 97.7461 322.628V325.524H98.8309V322.556C98.8309 321.265 98.1316 320.736 97.2709 320.736C96.6882 320.736 96.0426 320.996 95.684 321.579C95.4509 320.996 94.9668 320.736 94.3571 320.736C93.6668 320.736 93.1558 321.113 92.9316 321.552V320.835H91.8468V325.524ZM101.305 325.614C102.022 325.614 102.435 325.354 102.74 324.95V325.524H103.806V322.449C103.806 321.167 102.982 320.736 101.933 320.736C100.884 320.736 100.014 321.194 99.9244 322.287H100.973C101.027 321.821 101.305 321.552 101.87 321.552C102.506 321.552 102.722 321.866 102.722 322.494V322.736H102.139C100.794 322.736 99.7361 323.13 99.7361 324.224C99.7361 325.201 100.444 325.614 101.305 325.614ZM101.565 324.834C101.027 324.834 100.812 324.574 100.812 324.179C100.812 323.605 101.341 323.417 102.166 323.417H102.722V323.883C102.722 324.484 102.229 324.834 101.565 324.834ZM105.05 325.524H106.135V322.763C106.135 322.018 106.628 321.642 107.237 321.642C107.883 321.642 108.17 321.965 108.17 322.673V325.524H109.255V322.574C109.255 321.283 108.591 320.736 107.65 320.736C106.879 320.736 106.359 321.122 106.135 321.579V320.835H105.05V325.524ZM112.557 325.614C113.831 325.614 114.646 324.852 114.727 323.776H113.732C113.669 324.439 113.176 324.78 112.602 324.78C111.804 324.78 111.302 324.242 111.302 323.22V323.148C111.302 322.18 111.831 321.606 112.575 321.606C113.149 321.606 113.562 321.866 113.651 322.494H114.7C114.575 321.203 113.597 320.736 112.557 320.736C111.249 320.736 110.191 321.678 110.191 323.166V323.238C110.191 324.735 111.213 325.614 112.557 325.614ZM117.723 325.614C118.925 325.614 119.723 325.076 119.875 324.089H118.826C118.745 324.547 118.405 324.807 117.75 324.807C116.943 324.807 116.495 324.305 116.459 323.417H119.893V323.103C119.893 321.427 118.844 320.736 117.678 320.736C116.343 320.736 115.347 321.705 115.347 323.157V323.229C115.347 324.708 116.343 325.614 117.723 325.614ZM116.477 322.691C116.585 321.965 117.024 321.525 117.678 321.525C118.351 321.525 118.763 321.884 118.817 322.691H116.477ZM123.186 325.524H124.271V321.651H125.338V320.835H124.271V320.163C124.271 319.759 124.451 319.472 124.89 319.472C125.087 319.472 125.257 319.508 125.383 319.553V318.71C125.186 318.647 125.024 318.621 124.764 318.621C123.76 318.621 123.186 319.176 123.186 320.207V320.835H122.55V321.651H123.186V325.524ZM128.133 325.614C129.335 325.614 130.133 325.076 130.285 324.089H129.236C129.155 324.547 128.815 324.807 128.16 324.807C127.353 324.807 126.905 324.305 126.869 323.417H130.303V323.103C130.303 321.427 129.254 320.736 128.089 320.736C126.753 320.736 125.758 321.705 125.758 323.157V323.229C125.758 324.708 126.753 325.614 128.133 325.614ZM126.887 322.691C126.995 321.965 127.434 321.525 128.089 321.525C128.761 321.525 129.173 321.884 129.227 322.691H126.887ZM133.334 325.614C134.535 325.614 135.333 325.076 135.486 324.089H134.437C134.356 324.547 134.015 324.807 133.361 324.807C132.554 324.807 132.106 324.305 132.07 323.417H135.504V323.103C135.504 321.427 134.455 320.736 133.289 320.736C131.953 320.736 130.958 321.705 130.958 323.157V323.229C130.958 324.708 131.953 325.614 133.334 325.614ZM132.088 322.691C132.195 321.965 132.635 321.525 133.289 321.525C133.962 321.525 134.374 321.884 134.428 322.691H132.088ZM137.154 325.587C137.557 325.587 137.871 325.282 137.871 324.887C137.871 324.493 137.557 324.179 137.154 324.179C136.759 324.179 136.446 324.493 136.446 324.887C136.446 325.282 136.759 325.587 137.154 325.587ZM137.154 322.969C137.557 322.969 137.871 322.655 137.871 322.261C137.871 321.866 137.557 321.561 137.154 321.561C136.759 321.561 136.446 321.866 136.446 322.261C136.446 322.655 136.759 322.969 137.154 322.969Z" fill="white" fill-opacity="0.55"/>
<path d="M265.761 306.092C264.802 306.092 264.246 305.357 264.246 303.904V303.582C264.246 302.156 264.775 301.385 265.743 301.385C266.703 301.385 267.223 302.21 267.223 303.573V303.886C267.223 305.339 266.747 306.092 265.761 306.092ZM265.734 307.042C267.411 307.042 268.415 305.814 268.415 303.886V303.564C268.415 301.636 267.357 300.453 265.734 300.453C264.121 300.453 263.045 301.645 263.045 303.591V303.913C263.045 305.841 264.103 307.042 265.734 307.042ZM270.668 302.864C270.247 302.864 269.978 302.578 269.978 302.031C269.978 301.493 270.247 301.197 270.668 301.197C271.089 301.197 271.349 301.511 271.349 302.031C271.349 302.56 271.089 302.864 270.668 302.864ZM270.659 303.591C271.538 303.591 272.219 302.927 272.219 302.022C272.219 301.125 271.529 300.48 270.668 300.48C269.807 300.48 269.099 301.143 269.099 302.04C269.099 302.927 269.78 303.591 270.659 303.591ZM269.978 306.953H270.74L274.864 300.542H274.111L269.978 306.953ZM274.182 306.316C273.761 306.316 273.492 306.029 273.492 305.482C273.492 304.944 273.761 304.649 274.182 304.649C274.604 304.649 274.864 304.962 274.864 305.482C274.864 306.011 274.604 306.316 274.182 306.316ZM274.173 307.042C275.052 307.042 275.742 306.379 275.742 305.473C275.742 304.577 275.043 303.931 274.182 303.931C273.322 303.931 272.622 304.595 272.622 305.491C272.622 306.379 273.295 307.042 274.173 307.042Z" fill="white"/>
<path d="M263.781 325.524H268.417V324.6H265.691L267.117 323.211C267.879 322.476 268.372 321.749 268.372 320.916C268.372 319.786 267.583 319.024 266.256 319.024C264.902 319.024 264.059 319.831 263.979 321.229H265.072C265.18 320.324 265.583 319.956 266.22 319.956C266.839 319.956 267.179 320.333 267.179 320.934C267.179 321.543 266.812 322.108 266.202 322.754L263.781 325.309V325.524ZM270.668 321.436C270.247 321.436 269.978 321.149 269.978 320.602C269.978 320.064 270.247 319.768 270.668 319.768C271.089 319.768 271.349 320.082 271.349 320.602C271.349 321.131 271.089 321.436 270.668 321.436ZM270.659 322.162C271.538 322.162 272.219 321.498 272.219 320.593C272.219 319.696 271.529 319.051 270.668 319.051C269.807 319.051 269.099 319.714 269.099 320.611C269.099 321.498 269.78 322.162 270.659 322.162ZM269.978 325.524H270.74L274.864 319.114H274.111L269.978 325.524ZM274.182 324.887C273.761 324.887 273.492 324.6 273.492 324.054C273.492 323.516 273.761 323.22 274.182 323.22C274.604 323.22 274.864 323.534 274.864 324.054C274.864 324.583 274.604 324.887 274.182 324.887ZM274.173 325.614C275.052 325.614 275.742 324.95 275.742 324.045C275.742 323.148 275.043 322.503 274.182 322.503C273.322 322.503 272.622 323.166 272.622 324.063C272.622 324.95 273.295 325.614 274.173 325.614Z" fill="white"/>
<line x1="45" y1="105.75" x2="298" y2="105.75" stroke="white" stroke-opacity="0.2" stroke-width="0.640388"/>
<path d="M112.991 60.8729C114.27 60.8729 115.259 61.2523 115.959 62.0111C116.666 62.7699 117.019 63.8847 117.019 65.3556V69.8383C117.019 71.3092 116.666 72.4241 115.959 73.1829C115.259 73.9416 114.27 74.321 112.991 74.321H109.13V60.8729H112.991ZM112.991 72.3511C113.604 72.3511 114.071 72.1585 114.392 71.7733C114.713 71.3822 114.874 70.7372 114.874 69.8383V65.3556C114.874 64.4509 114.713 63.8059 114.392 63.4207C114.077 63.0355 113.61 62.8428 112.991 62.8428H111.284V72.3511H112.991ZM127.622 69.8383C127.622 70.0018 127.61 70.2411 127.586 70.5563H120.845C120.962 71.2158 121.227 71.7236 121.642 72.0797C122.062 72.4357 122.605 72.6138 123.27 72.6138C124.169 72.6138 124.767 72.2869 125.065 71.6332H127.394C127.131 72.5554 126.629 73.2646 125.888 73.7607C125.153 74.251 124.251 74.4962 123.183 74.4962C121.893 74.4962 120.827 74.0613 119.987 73.1916C119.152 72.3219 118.735 71.2042 118.735 69.8383C118.735 68.4725 119.152 67.3547 119.987 66.485C120.827 65.6154 121.893 65.1805 123.183 65.1805C124.473 65.1805 125.535 65.6154 126.37 66.485C127.204 67.3547 127.622 68.4725 127.622 69.8383ZM124.715 67.5795C124.318 67.2351 123.807 67.0629 123.183 67.0629C122.558 67.0629 122.044 67.2351 121.642 67.5795C121.239 67.918 120.979 68.4025 120.862 69.0328H125.494C125.377 68.4025 125.118 67.918 124.715 67.5795ZM134.354 74.4962C133.286 74.4962 132.39 74.0613 131.666 73.1916V78.8038H129.513V65.3556H131.666V66.485C132.39 65.6154 133.286 65.1805 134.354 65.1805C135.592 65.1805 136.619 65.6183 137.436 66.4938C138.253 67.3635 138.662 68.4783 138.662 69.8383C138.662 71.1983 138.253 72.3161 137.436 73.1916C136.619 74.0613 135.592 74.4962 134.354 74.4962ZM132.349 71.782C132.81 72.2781 133.391 72.5262 134.092 72.5262C134.792 72.5262 135.37 72.2781 135.825 71.782C136.281 71.2859 136.508 70.638 136.508 69.8383C136.508 69.0387 136.281 68.3908 135.825 67.8947C135.37 67.3985 134.792 67.1505 134.092 67.1505C133.391 67.1505 132.81 67.4014 132.349 67.9034C131.894 68.3995 131.666 69.0445 131.666 69.8383C131.666 70.6321 131.894 71.28 132.349 71.782ZM147.767 73.1916C146.904 74.0613 145.812 74.4962 144.493 74.4962C143.174 74.4962 142.082 74.0613 141.219 73.1916C140.355 72.3161 139.923 71.1983 139.923 69.8383C139.923 68.4783 140.355 67.3635 141.219 66.4938C142.082 65.6183 143.174 65.1805 144.493 65.1805C145.812 65.1805 146.904 65.6183 147.767 66.4938C148.631 67.3635 149.063 68.4783 149.063 69.8383C149.063 71.1983 148.631 72.3161 147.767 73.1916ZM142.751 71.782C143.212 72.2781 143.793 72.5262 144.493 72.5262C145.193 72.5262 145.771 72.2781 146.227 71.782C146.682 71.2859 146.909 70.638 146.909 69.8383C146.909 69.0387 146.682 68.3908 146.227 67.8947C145.771 67.3985 145.193 67.1505 144.493 67.1505C143.793 67.1505 143.212 67.4014 142.751 67.9034C142.295 68.3995 142.068 69.0445 142.068 69.8383C142.068 70.6321 142.295 71.28 142.751 71.782ZM158.011 71.7382C158.011 72.5787 157.667 73.25 156.978 73.752C156.295 74.2481 155.42 74.4962 154.351 74.4962C153.202 74.4962 152.256 74.216 151.515 73.6556C150.779 73.0953 150.412 72.3307 150.412 71.3618H152.653C152.653 71.8287 152.808 72.1877 153.117 72.4387C153.432 72.6896 153.844 72.8151 154.351 72.8151C154.807 72.8151 155.16 72.7334 155.411 72.57C155.662 72.4007 155.787 72.1526 155.787 71.8258C155.787 71.569 155.691 71.3618 155.498 71.2042C155.306 71.0466 155.055 70.9298 154.745 70.8539C154.442 70.7722 154.103 70.6993 153.73 70.6351C153.362 70.5709 152.991 70.4833 152.618 70.3724C152.25 70.2615 151.912 70.1185 151.602 69.9434C151.299 69.7625 151.051 69.4998 150.858 69.1554C150.665 68.8052 150.569 68.382 150.569 67.8859C150.569 67.0687 150.902 66.415 151.567 65.9247C152.233 65.4286 153.073 65.1805 154.089 65.1805C155.163 65.1805 156.059 65.4724 156.777 66.056C157.495 66.6339 157.854 67.3518 157.854 68.2098H155.612C155.612 67.8304 155.466 67.5153 155.174 67.2643C154.888 67.0074 154.527 66.879 154.089 66.879C153.68 66.879 153.353 66.9608 153.108 67.1242C152.863 67.2876 152.74 67.5123 152.74 67.7983C152.74 68.0026 152.816 68.1748 152.968 68.3149C153.12 68.4492 153.318 68.5513 153.563 68.6213C153.809 68.6855 154.089 68.7556 154.404 68.8315C154.725 68.9015 155.049 68.9686 155.376 69.0328C155.703 69.0912 156.024 69.1904 156.339 69.3305C156.66 69.4648 156.943 69.6253 157.188 69.8121C157.433 69.993 157.632 70.2498 157.784 70.5825C157.935 70.9094 158.011 71.2946 158.011 71.7382ZM161.058 63.5608C160.673 63.5608 160.352 63.4324 160.095 63.1755C159.844 62.9187 159.718 62.6006 159.718 62.2212C159.718 61.836 159.844 61.515 160.095 61.2581C160.352 61.0013 160.673 60.8729 161.058 60.8729C161.449 60.8729 161.77 61.0013 162.021 61.2581C162.278 61.515 162.406 61.836 162.406 62.2212C162.406 62.6006 162.278 62.9187 162.021 63.1755C161.77 63.4324 161.449 63.5608 161.058 63.5608ZM162.135 74.321H159.981V65.3556H162.135V74.321ZM167.336 71.2567C167.336 71.6945 167.444 72.0155 167.66 72.2198C167.875 72.4241 168.214 72.5262 168.675 72.5262C169.025 72.5262 169.355 72.4737 169.664 72.3686V74.286C169.233 74.4261 168.76 74.4962 168.246 74.4962C167.779 74.4962 167.368 74.4436 167.012 74.3386C166.656 74.2393 166.335 74.0759 166.049 73.8483C165.768 73.6206 165.552 73.3025 165.401 72.8939C165.255 72.4795 165.182 71.9805 165.182 71.3968V67.238H163.746V65.3556H165.182V62.6677H167.336V65.3556H169.664V67.238H167.336V71.2567ZM176.835 63.5608C176.45 63.5608 176.129 63.4324 175.872 63.1755C175.621 62.9187 175.496 62.6006 175.496 62.2212C175.496 61.836 175.621 61.515 175.872 61.2581C176.129 61.0013 176.45 60.8729 176.835 60.8729C177.226 60.8729 177.547 61.0013 177.798 61.2581C178.055 61.515 178.183 61.836 178.183 62.2212C178.183 62.6006 178.055 62.9187 177.798 63.1755C177.547 63.4324 177.226 63.5608 176.835 63.5608ZM177.912 74.321H175.758V65.3556H177.912V74.321ZM182.57 69.3918V74.321H180.416V65.3556H182.57V66.6426C182.844 66.1699 183.203 65.808 183.647 65.557C184.09 65.306 184.592 65.1805 185.153 65.1805C186.145 65.1805 186.947 65.5074 187.56 66.1611C188.179 66.809 188.488 67.7429 188.488 68.9628V74.321H186.335V69.3918C186.335 68.6447 186.168 68.0698 185.836 67.667C185.503 67.2643 185.042 67.0629 184.452 67.0629C183.863 67.0629 183.402 67.2643 183.069 67.667C182.736 68.0698 182.57 68.6447 182.57 69.3918ZM202.208 65.3556L199.424 74.321H196.377L193.593 65.3556H195.834L197.9 72.4737L199.967 65.3556H202.208ZM208.967 74.321V72.9902C208.418 73.9942 207.467 74.4962 206.113 74.4962C205.576 74.4962 205.086 74.4115 204.642 74.2422C204.204 74.073 203.836 73.7899 203.539 73.393C203.247 72.9902 203.101 72.4999 203.101 71.9221C203.101 71.461 203.183 71.0612 203.346 70.7226C203.515 70.3841 203.737 70.1214 204.012 69.9346C204.286 69.7479 204.598 69.5903 204.948 69.4619C205.299 69.3276 205.655 69.2342 206.016 69.1817C206.378 69.1292 206.734 69.0708 207.085 69.0066C207.435 68.9424 207.747 68.8811 208.021 68.8227C208.296 68.7585 208.515 68.6564 208.678 68.5163C208.847 68.3762 208.932 68.2011 208.932 67.991C208.932 67.6524 208.774 67.3839 208.459 67.1855C208.15 66.9812 207.756 66.879 207.277 66.879C206.769 66.879 206.364 67.0104 206.06 67.273C205.763 67.5357 205.614 67.9122 205.614 68.4025H203.372C203.372 67.8421 203.48 67.3489 203.696 66.9228C203.912 66.4967 204.207 66.1611 204.581 65.916C204.954 65.665 205.366 65.4811 205.815 65.3644C206.27 65.2418 206.758 65.1805 207.277 65.1805C207.791 65.1805 208.267 65.236 208.704 65.3469C209.148 65.4519 209.551 65.6154 209.913 65.8372C210.274 66.059 210.56 66.3625 210.771 66.7477C210.981 67.1271 211.086 67.5707 211.086 68.0785V74.321H208.967ZM205.307 71.7733C205.307 72.0768 205.421 72.3102 205.649 72.4737C205.882 72.6313 206.186 72.7101 206.559 72.7101C207.225 72.7101 207.791 72.5262 208.258 72.1585C208.731 71.7908 208.967 71.28 208.967 70.6263V70.2148C208.722 70.3199 208.415 70.4133 208.048 70.495C207.68 70.5709 207.347 70.638 207.05 70.6963C206.752 70.7489 206.463 70.816 206.183 70.8977C205.909 70.9794 205.693 71.0933 205.535 71.2392C205.383 71.3793 205.307 71.5573 205.307 71.7733ZM219.149 74.321V73.0515C218.881 73.5126 218.528 73.8687 218.09 74.1197C217.652 74.3707 217.162 74.4962 216.619 74.4962C215.639 74.4962 214.842 74.1722 214.229 73.5243C213.622 72.8706 213.318 71.9338 213.318 70.7139V65.3556H215.472V70.2849C215.472 71.032 215.636 71.6069 215.963 72.0096C216.289 72.4124 216.742 72.6138 217.32 72.6138C217.892 72.6138 218.338 72.4124 218.659 72.0096C218.986 71.6069 219.149 71.032 219.149 70.2849V65.3556H221.294V74.321H219.149ZM225.961 74.321H223.807V60.8729H225.961V74.321ZM231.162 71.2567C231.162 71.6945 231.27 72.0155 231.486 72.2198C231.702 72.4241 232.04 72.5262 232.501 72.5262C232.852 72.5262 233.181 72.4737 233.491 72.3686V74.286C233.059 74.4261 232.586 74.4962 232.072 74.4962C231.605 74.4962 231.194 74.4436 230.838 74.3386C230.482 74.2393 230.161 74.0759 229.875 73.8483C229.595 73.6206 229.379 73.3025 229.227 72.8939C229.081 72.4795 229.008 71.9805 229.008 71.3968V67.238H227.572V65.3556H229.008V62.6677H231.162V65.3556H233.491V67.238H231.162V71.2567Z" fill="white"/>
<path d="M153.803 89.1646V83.2833H154.797C156.815 83.2833 157.635 84.4718 157.635 86.1625V86.2444C157.635 88.0375 156.693 89.1646 154.807 89.1646H153.803ZM152.912 89.8921H154.828C157.389 89.8921 158.557 88.2834 158.557 86.2547V86.1625C158.557 84.1235 157.369 82.5661 154.848 82.5661H152.912V89.8921ZM162.177 89.9843C163.386 89.9843 164.278 89.4208 164.462 88.3449H163.612C163.499 88.9699 163.017 89.2773 162.187 89.2773C161.091 89.2773 160.507 88.6011 160.466 87.3818H164.503V87.1051C164.503 85.1891 163.335 84.4411 162.095 84.4411C160.62 84.4411 159.585 85.5682 159.585 87.1871V87.2691C159.585 88.9187 160.661 89.9843 162.177 89.9843ZM160.497 86.6953C160.64 85.7424 161.224 85.1481 162.095 85.1481C162.976 85.1481 163.55 85.5887 163.632 86.6953H160.497ZM165.992 89.8921H166.843V85.2506H168.154V84.5333H166.843V83.5702C166.843 83.0271 167.058 82.648 167.601 82.648C167.837 82.648 168.001 82.6788 168.154 82.7402V82.023C167.99 81.9615 167.847 81.941 167.57 81.941C166.515 81.941 165.992 82.5763 165.992 83.6624V84.5333H165.224V85.2506H165.992V89.8921ZM169.221 89.8921H170.071V84.5333H169.221V89.8921ZM169.63 83.4165C169.938 83.4165 170.194 83.1603 170.194 82.8529C170.194 82.5456 169.938 82.2894 169.63 82.2894C169.323 82.2894 169.067 82.5456 169.067 82.8529C169.067 83.1603 169.323 83.4165 169.63 83.4165ZM174.544 89.8921H175.394V84.5333H174.544V89.8921ZM174.954 83.4165C175.261 83.4165 175.517 83.1603 175.517 82.8529C175.517 82.5456 175.261 82.2894 174.954 82.2894C174.646 82.2894 174.39 82.5456 174.39 82.8529C174.39 83.1603 174.646 83.4165 174.954 83.4165ZM177.135 89.8921H177.985V86.644C177.985 85.6809 178.692 85.1788 179.481 85.1788C180.342 85.1788 180.742 85.5989 180.742 86.5416V89.8921H181.592V86.6031C181.592 85.0456 180.813 84.4411 179.707 84.4411C178.826 84.4411 178.231 84.8817 177.985 85.3838V84.5333H177.135V89.8921ZM185.277 89.9843C186.056 89.9843 186.804 89.4925 187.111 88.9699V89.8921H187.962V81.9718H187.111V85.394C186.804 84.8715 186.25 84.4411 185.359 84.4411C183.884 84.4411 182.859 85.5989 182.859 87.2383V87.3203C182.859 88.9904 183.873 89.9843 185.277 89.9843ZM185.369 89.2773C184.468 89.2773 183.74 88.6318 183.74 87.2793V87.1973C183.74 85.8961 184.375 85.1481 185.441 85.1481C186.486 85.1481 187.142 85.7936 187.142 87.1666V87.2486C187.142 88.6216 186.363 89.2773 185.369 89.2773ZM191.875 89.9843C193.084 89.9843 193.976 89.4208 194.16 88.3449H193.31C193.197 88.9699 192.715 89.2773 191.885 89.2773C190.789 89.2773 190.205 88.6011 190.164 87.3818H194.201V87.1051C194.201 85.1891 193.033 84.4411 191.793 84.4411C190.318 84.4411 189.283 85.5682 189.283 87.1871V87.2691C189.283 88.9187 190.359 89.9843 191.875 89.9843ZM190.195 86.6953C190.338 85.7424 190.922 85.1481 191.793 85.1481C192.674 85.1481 193.248 85.5887 193.33 86.6953H190.195ZM194.782 89.8921H195.694L197.17 87.7301L198.614 89.8921H199.618L197.661 87.0744L199.434 84.5333H198.512L197.21 86.4801L195.899 84.5333H194.905L196.698 87.1359L194.782 89.8921Z" fill="white" fill-opacity="0.55"/>
<rect x="138.807" y="80.252" width="11.527" height="11.527" rx="5.76349" fill="url(#paint0_linear_413_774)"/>
<g filter="url(#filter1_d_413_774)">
<path d="M145.467 83.0005C145.438 83.005 145.413 83.0306 145.407 83.0373C145.405 83.0406 145.399 83.0439 145.397 83.0478L142.571 86.3054C142.558 86.3191 142.551 86.3373 142.551 86.358C142.551 86.3995 142.581 86.4318 142.621 86.4318H144.059L143.46 88.8947V88.9105C143.459 88.9152 143.455 88.9212 143.455 88.9263C143.455 88.9678 143.485 89 143.525 89C143.547 89 143.566 88.9902 143.58 88.9737L146.431 85.5476C146.444 85.5339 146.451 85.5157 146.451 85.4949C146.451 85.4535 146.42 85.4213 146.381 85.4213H144.838L145.527 83.111C145.532 83.101 145.532 83.0913 145.532 83.0794C145.532 83.0379 145.53 83.0197 145.497 83.0058C145.487 83.0015 145.477 82.9989 145.467 83.0005Z" fill="#521484"/>
</g>
<path d="M271.466 66.8114L276.453 61.8241C276.778 61.4997 276.778 60.9752 276.453 60.6508C276.129 60.3264 275.604 60.3264 275.28 60.6508L270.293 65.6381L265.305 60.6508C264.981 60.3264 264.456 60.3264 264.132 60.6508C263.808 60.9752 263.808 61.4997 264.132 61.8241L269.119 66.8114L264.132 71.7988C263.808 72.1232 263.808 72.6477 264.132 72.9721C264.294 73.1339 264.506 73.2152 264.719 73.2152C264.931 73.2152 265.144 73.1339 265.305 72.9721L270.293 67.9848L275.28 72.9721C275.442 73.1339 275.654 73.2152 275.867 73.2152C276.079 73.2152 276.291 73.1339 276.453 72.9721C276.778 72.6477 276.778 72.1232 276.453 71.7988L271.466 66.8114Z" fill="white" fill-opacity="0.55"/>
<path d="M89.5281 156.04H93.455V155.09H90.7205V149.63H89.5281V156.04ZM94.4034 156.04H95.4882V151.351H94.4034V156.04ZM94.9323 150.58C95.2909 150.58 95.5778 150.311 95.5778 149.961C95.5778 149.603 95.2909 149.334 94.9323 149.334C94.5737 149.334 94.2868 149.603 94.2868 149.961C94.2868 150.311 94.5737 150.58 94.9323 150.58ZM96.8104 156.04H97.8953V153.279C97.8953 152.535 98.3884 152.158 98.998 152.158C99.6435 152.158 99.9304 152.481 99.9304 153.189V156.04H101.015V153.09C101.015 151.799 100.352 151.252 99.4104 151.252C98.6394 151.252 98.1194 151.638 97.8953 152.095V151.351H96.8104V156.04ZM102.265 156.04H103.35V153.736L105.107 156.04H106.362L104.39 153.503L106.21 151.351H105.026L103.35 153.413V149.181H102.265V156.04Z" fill="white"/>
<path d="M78.5489 147.04L77.4646 147.648L74.51 149.314L73.4258 149.922V155.685L74.51 156.293L77.4917 157.959L78.576 158.567L79.6602 157.959L82.5877 156.293L83.672 155.685V149.922L82.5877 149.314L79.6331 147.648L78.5489 147.04ZM75.5943 154.469V151.138L78.5489 149.472L81.5035 151.138V154.469L78.5489 156.135L75.5943 154.469Z" fill="#3A5FCB"/>
<path d="M268.869 151.164L265.667 154.366L262.465 151.164" stroke="#646464" stroke-width="1.28078" stroke-linecap="round" stroke-linejoin="round"/>
<path d="M65.0936 127.863H66.2143L66.7164 126.276H69.1639L69.675 127.863H70.9122L68.7964 121.452H67.2364L65.0936 127.863ZM67.9446 122.429L68.886 125.406H66.9943L67.9446 122.429ZM73.4057 127.952C74.6071 127.952 75.2795 127.405 75.2795 126.455C75.2795 125.46 74.625 125.191 73.5223 125.021C72.7781 124.895 72.554 124.761 72.554 124.42C72.554 124.088 72.8319 123.864 73.2981 123.864C73.8002 123.864 74.0422 124.061 74.1319 124.492H75.136C75.0195 123.434 74.2574 123.075 73.2981 123.075C72.4195 123.075 71.5409 123.541 71.5409 124.483C71.5409 125.361 71.9981 125.711 73.2354 125.908C73.9257 126.025 74.2395 126.168 74.2395 126.554C74.2395 126.948 73.9795 127.154 73.3967 127.154C72.7602 127.154 72.5181 126.876 72.4643 126.401H71.4423C71.4871 127.396 72.1954 127.952 73.4057 127.952ZM77.8359 127.952C79.0373 127.952 79.7097 127.405 79.7097 126.455C79.7097 125.46 79.0552 125.191 77.9524 125.021C77.2083 124.895 76.9842 124.761 76.9842 124.42C76.9842 124.088 77.2621 123.864 77.7283 123.864C78.2304 123.864 78.4724 124.061 78.5621 124.492H79.5662C79.4497 123.434 78.6876 123.075 77.7283 123.075C76.8497 123.075 75.9711 123.541 75.9711 124.483C75.9711 125.361 76.4283 125.711 77.6655 125.908C78.3559 126.025 78.6697 126.168 78.6697 126.554C78.6697 126.948 78.4097 127.154 77.8269 127.154C77.1904 127.154 76.9483 126.876 76.8945 126.401H75.8725C75.9173 127.396 76.6256 127.952 77.8359 127.952ZM82.7233 127.952C83.9247 127.952 84.7226 127.414 84.875 126.428H83.8261C83.7454 126.885 83.4047 127.145 82.7502 127.145C81.9433 127.145 81.495 126.643 81.4592 125.756H84.8929V125.442C84.8929 123.765 83.844 123.075 82.6785 123.075C81.3426 123.075 80.3475 124.043 80.3475 125.496V125.567C80.3475 127.047 81.3426 127.952 82.7233 127.952ZM81.4771 125.029C81.5847 124.303 82.024 123.864 82.6785 123.864C83.3509 123.864 83.7633 124.223 83.8171 125.029H81.4771ZM87.4578 127.943C87.7895 127.943 88.0226 127.889 88.1929 127.827V126.966C88.0405 127.029 87.8791 127.056 87.664 127.056C87.3233 127.056 87.126 126.867 87.126 126.455V123.989H88.1571V123.174H87.126V122.143H86.0412V123.174H85.4136V123.989H86.0412V126.554C86.0412 127.441 86.5253 127.943 87.4578 127.943Z" fill="white"/>
<rect x="65.2186" y="135.849" width="211.141" height="33.472" rx="6.08368" stroke="white" stroke-opacity="0.2" stroke-width="0.640388"/>
<path d="M204.245 189.23H206.711C208.118 189.23 208.907 188.629 208.907 187.437V187.401C208.907 186.549 208.495 186.074 207.625 185.886C208.352 185.662 208.638 185.16 208.638 184.523V184.487C208.638 183.322 207.858 182.82 206.541 182.82H204.245V189.23ZM205.411 188.378V186.325H206.487C207.365 186.325 207.733 186.657 207.733 187.32V187.356C207.733 188.02 207.365 188.378 206.567 188.378H205.411ZM205.411 185.518V183.671H206.379C207.141 183.671 207.491 183.931 207.491 184.541V184.577C207.491 185.231 207.186 185.518 206.397 185.518H205.411ZM211.163 189.32C211.88 189.32 212.292 189.06 212.597 188.656V189.23H213.664V186.155C213.664 184.873 212.839 184.442 211.79 184.442C210.741 184.442 209.871 184.9 209.782 185.993H210.831C210.885 185.527 211.163 185.258 211.727 185.258C212.364 185.258 212.579 185.572 212.579 186.2V186.442H211.996C210.651 186.442 209.594 186.836 209.594 187.93C209.594 188.907 210.302 189.32 211.163 189.32ZM211.423 188.54C210.885 188.54 210.669 188.28 210.669 187.885C210.669 187.311 211.198 187.123 212.023 187.123H212.579V187.589C212.579 188.19 212.086 188.54 211.423 188.54ZM214.934 189.23H216.019V182.371H214.934V189.23ZM218.569 189.32C219.287 189.32 219.699 189.06 220.004 188.656V189.23H221.071V186.155C221.071 184.873 220.246 184.442 219.197 184.442C218.148 184.442 217.278 184.9 217.189 185.993H218.238C218.292 185.527 218.569 185.258 219.134 185.258C219.771 185.258 219.986 185.572 219.986 186.2V186.442H219.403C218.058 186.442 217.001 186.836 217.001 187.93C217.001 188.907 217.709 189.32 218.569 189.32ZM218.829 188.54C218.292 188.54 218.076 188.28 218.076 187.885C218.076 187.311 218.605 187.123 219.43 187.123H219.986V187.589C219.986 188.19 219.493 188.54 218.829 188.54ZM222.314 189.23H223.399V186.469C223.399 185.724 223.892 185.348 224.502 185.348C225.147 185.348 225.434 185.671 225.434 186.379V189.23H226.519V186.28C226.519 184.989 225.856 184.442 224.914 184.442C224.143 184.442 223.623 184.828 223.399 185.285V184.541H222.314V189.23ZM229.822 189.32C231.095 189.32 231.911 188.558 231.992 187.482H230.996C230.934 188.145 230.44 188.486 229.867 188.486C229.069 188.486 228.567 187.948 228.567 186.926V186.854C228.567 185.886 229.096 185.312 229.84 185.312C230.414 185.312 230.826 185.572 230.916 186.2H231.965C231.839 184.909 230.862 184.442 229.822 184.442C228.513 184.442 227.455 185.384 227.455 186.872V186.944C227.455 188.441 228.477 189.32 229.822 189.32ZM234.988 189.32C236.189 189.32 236.987 188.782 237.139 187.796H236.09C236.01 188.253 235.669 188.513 235.015 188.513C234.208 188.513 233.759 188.011 233.724 187.123H237.157V186.809C237.157 185.133 236.108 184.442 234.943 184.442C233.607 184.442 232.612 185.411 232.612 186.863V186.935C232.612 188.414 233.607 189.32 234.988 189.32ZM233.742 186.397C233.849 185.671 234.288 185.231 234.943 185.231C235.615 185.231 236.028 185.59 236.082 186.397H233.742ZM238.808 189.293C239.211 189.293 239.525 188.988 239.525 188.593C239.525 188.199 239.211 187.885 238.808 187.885C238.413 187.885 238.099 188.199 238.099 188.593C238.099 188.988 238.413 189.293 238.808 189.293ZM238.808 186.675C239.211 186.675 239.525 186.361 239.525 185.967C239.525 185.572 239.211 185.267 238.808 185.267C238.413 185.267 238.099 185.572 238.099 185.967C238.099 186.361 238.413 186.675 238.808 186.675ZM245.004 189.32C246.475 189.32 247.407 188.584 247.407 187.401C247.407 186.549 246.914 186.02 246.17 185.85C246.788 185.617 247.21 185.178 247.21 184.451C247.21 183.501 246.43 182.73 245.094 182.73C243.722 182.73 242.888 183.582 242.826 184.693H243.884C243.955 184.048 244.395 183.636 245.076 183.636C245.739 183.636 246.071 184.021 246.071 184.541C246.071 185.142 245.739 185.482 245.004 185.482H244.547V186.334H245.04C245.82 186.334 246.197 186.684 246.197 187.383C246.197 188.02 245.811 188.423 244.977 188.423C244.117 188.423 243.74 187.921 243.677 187.249H242.593C242.646 188.477 243.48 189.32 245.004 189.32ZM251.273 189.23H252.429V187.93H253.29V187.042H252.429V182.82H250.932L248.099 187.509V187.93H251.273V189.23ZM249.372 187.042L251.29 183.725V187.042H249.372ZM256.436 189.23H260.363V188.28H257.628V182.82H256.436V189.23ZM261.41 189.23H262.611V182.82H261.41V189.23ZM264.123 189.23H265.208V184.317L268.095 189.23H269.332V182.82H268.247V187.455L265.548 182.82H264.123V189.23ZM270.803 189.23H271.996V186.236L274.461 189.23H275.869L273.08 185.877L275.734 182.811H274.452L271.996 185.724V182.82H270.803V189.23Z" fill="white" fill-opacity="0.55"/>
<path d="M65.0936 188.59H66.2143L66.7164 187.003H69.1639L69.675 188.59H70.9122L68.7964 182.18H67.2364L65.0936 188.59ZM67.9446 183.157L68.886 186.134H66.9943L67.9446 183.157ZM71.8009 188.59H72.8857V185.784C72.8857 185.067 73.3788 184.708 73.9167 184.708C74.4457 184.708 74.7505 185.004 74.7505 185.694V188.59H75.8353V185.784C75.8353 185.067 76.3284 184.708 76.8664 184.708C77.4043 184.708 77.7001 185.004 77.7001 185.694V188.59H78.785V185.623C78.785 184.332 78.0857 183.803 77.225 183.803C76.6422 183.803 75.9967 184.063 75.6381 184.645C75.405 184.063 74.9209 183.803 74.3112 183.803C73.6209 183.803 73.1098 184.179 72.8857 184.618V183.901H71.8009V188.59ZM82.1288 187.837C81.304 187.837 80.8288 187.236 80.8288 186.277V186.205C80.8288 185.237 81.3219 184.654 82.1288 184.654C82.9357 184.654 83.4198 185.246 83.4198 186.214V186.277C83.4198 187.236 82.9357 187.837 82.1288 187.837ZM82.1198 188.68C83.5005 188.68 84.5315 187.729 84.5315 186.268V186.196C84.5315 184.762 83.5005 183.803 82.1288 183.803C80.7481 183.803 79.7171 184.771 79.7171 186.223V186.295C79.7171 187.72 80.7391 188.68 82.1198 188.68ZM87.0806 188.68C87.8427 188.68 88.3358 188.312 88.5689 187.855V188.59H89.6537V183.901H88.5689V186.689C88.5689 187.434 88.0579 187.81 87.4751 187.81C86.8475 187.81 86.5517 187.487 86.5517 186.779V183.901H85.4669V186.905C85.4669 188.151 86.1572 188.68 87.0806 188.68ZM90.94 188.59H92.0248V185.829C92.0248 185.085 92.5179 184.708 93.1275 184.708C93.7731 184.708 94.06 185.031 94.06 185.739V188.59H95.1448V185.64C95.1448 184.349 94.4813 183.803 93.54 183.803C92.7689 183.803 92.2489 184.188 92.0248 184.645V183.901H90.94V188.59ZM97.9904 188.671C98.3221 188.671 98.5552 188.617 98.7255 188.554V187.694C98.5731 187.756 98.4118 187.783 98.1966 187.783C97.8559 187.783 97.6587 187.595 97.6587 187.183V184.717H98.6897V183.901H97.6587V182.87H96.5738V183.901H95.9463V184.717H96.5738V187.281C96.5738 188.169 97.058 188.671 97.9904 188.671Z" fill="white"/>
<rect x="65.2186" y="196.576" width="211.141" height="33.472" rx="6.08368" stroke="white" stroke-opacity="0.2" stroke-width="0.640388"/>
<path d="M79.2084 205.711C79.2084 206.03 79.1578 206.341 79.0565 206.645C78.9589 206.946 78.8276 207.218 78.6625 207.462C78.5011 207.702 78.321 207.936 78.1221 208.165C77.927 208.394 77.7225 208.615 77.5086 208.829C77.2985 209.039 77.1015 209.244 76.9177 209.443C76.7375 209.642 76.5762 209.854 76.4336 210.079C76.2948 210.304 76.1991 210.523 76.1466 210.737H79.3266V212.004H74.6438V211.334C74.6438 211.049 74.6794 210.773 74.7507 210.507C74.8258 210.24 74.9233 209.998 75.0434 209.78C75.1672 209.563 75.3079 209.351 75.4655 209.144C75.6269 208.938 75.7957 208.745 75.9721 208.565C76.1484 208.381 76.3248 208.201 76.5012 208.024C76.6775 207.844 76.8445 207.664 77.0021 207.484C77.1634 207.304 77.3041 207.124 77.4242 206.944C77.548 206.764 77.6456 206.568 77.7169 206.358C77.7919 206.144 77.8295 205.929 77.8295 205.711C77.8295 205.306 77.7525 205.006 77.5987 204.811C77.4486 204.612 77.2404 204.512 76.9739 204.512C76.6888 204.512 76.4711 204.61 76.321 204.805C76.1747 205 76.1015 205.325 76.1015 205.779V206.471H74.717V205.666C74.717 205.156 74.8183 204.715 75.0209 204.343C75.2273 203.972 75.4974 203.696 75.8314 203.516C76.1691 203.336 76.5499 203.246 76.9739 203.246C77.6193 203.246 78.1522 203.462 78.5724 203.893C78.9964 204.321 79.2084 204.927 79.2084 205.711Z" fill="white"/>
<path d="M76.3805 224.381H76.9812V223.251C78.2991 223.162 79.0791 222.328 79.0791 221.279C79.0791 220.069 78.3081 219.62 76.9812 219.405V217.567C77.5281 217.657 77.806 217.971 77.9046 218.518H78.9626C78.855 217.406 78.1377 216.805 76.9812 216.698V215.882H76.3805V216.689C75.1612 216.769 74.3633 217.513 74.3633 218.509C74.3633 219.647 75.0536 220.131 76.3805 220.356V222.373C75.5288 222.265 75.3316 221.772 75.2598 221.189H74.1481C74.2378 222.274 74.8474 223.144 76.3805 223.251V224.381ZM77.9764 221.387C77.9764 221.915 77.5819 222.292 76.9812 222.373V220.454C77.7612 220.624 77.9764 220.876 77.9764 221.387ZM75.4212 218.41C75.4212 217.962 75.7619 217.612 76.3805 217.54V219.307C75.5916 219.145 75.4212 218.876 75.4212 218.41ZM82.4311 223.26C83.8835 223.26 84.798 222.382 84.798 221.082C84.798 219.836 83.9194 218.993 82.6911 218.993C81.9291 218.993 81.4001 219.324 81.1042 219.818C81.1401 218.356 81.7049 217.594 82.5656 217.594C83.1842 217.594 83.4353 217.881 83.5518 218.365H84.6635C84.5111 217.245 83.7401 216.671 82.5746 216.671C81.0415 216.671 79.9208 217.881 79.9208 220.104V220.257C79.9208 221.951 80.5663 223.26 82.4311 223.26ZM82.4132 222.382C81.687 222.382 81.176 221.889 81.176 221.037C81.176 220.329 81.687 219.818 82.4132 219.818C83.1484 219.818 83.6146 220.338 83.6146 221.109C83.6146 221.871 83.1304 222.382 82.4132 222.382ZM87.9325 223.26C89.4029 223.26 90.3353 222.525 90.3353 221.342C90.3353 220.49 89.8422 219.961 89.0981 219.791C89.7167 219.558 90.138 219.118 90.138 218.392C90.138 217.442 89.358 216.671 88.0222 216.671C86.6505 216.671 85.8167 217.522 85.7539 218.634H86.8119C86.8836 217.989 87.3229 217.576 88.0043 217.576C88.6677 217.576 88.9994 217.962 88.9994 218.482C88.9994 219.082 88.6677 219.423 87.9325 219.423H87.4753V220.275H87.9684C88.7484 220.275 89.1249 220.624 89.1249 221.324C89.1249 221.96 88.7394 222.364 87.9056 222.364C87.045 222.364 86.6684 221.862 86.6057 221.189H85.5208C85.5746 222.418 86.4084 223.26 87.9325 223.26Z" fill="white" fill-opacity="0.55"/>
<rect x="237" y="204" width="33" height="19" rx="5" fill="#9F44FF"/>
<path d="M245.735 217.236H246.811V212.394L248.757 217.236H249.142L251.052 212.394V217.236H252.244V210.825H250.666L249.017 215.2L247.331 210.825H245.735V217.236ZM254.806 217.325C255.523 217.325 255.936 217.065 256.241 216.662V217.236H257.307V214.16C257.307 212.878 256.483 212.448 255.434 212.448C254.385 212.448 253.515 212.905 253.425 213.999H254.474C254.528 213.533 254.806 213.264 255.371 213.264C256.007 213.264 256.223 213.578 256.223 214.205V214.447H255.64C254.295 214.447 253.237 214.842 253.237 215.936C253.237 216.913 253.945 217.325 254.806 217.325ZM255.066 216.545C254.528 216.545 254.313 216.285 254.313 215.891C254.313 215.317 254.842 215.129 255.667 215.129H256.223V215.595C256.223 216.196 255.73 216.545 255.066 216.545ZM258.094 217.236H259.223L260.344 215.541L261.438 217.236H262.702L261.025 214.752L262.54 212.547H261.402L260.434 214.062L259.456 212.547H258.201L259.725 214.833L258.094 217.236Z" fill="white"/>
<rect x="65.7107" y="237.711" width="210.579" height="30.5787" rx="7.91691" fill="#9F44FF" fill-opacity="0.3" stroke="#9F44FF" stroke-width="1.42135"/>
<path d="M156.261 249.315C156.991 249.315 157.557 249.532 157.957 249.966C158.36 250.399 158.562 251.036 158.562 251.877V254.438C158.562 255.279 158.36 255.916 157.957 256.35C157.557 256.783 156.991 257 156.261 257H154.054V249.315H156.261ZM156.261 255.874C156.611 255.874 156.878 255.764 157.061 255.544C157.245 255.321 157.336 254.952 157.336 254.438V251.877C157.336 251.36 157.245 250.991 157.061 250.771C156.881 250.551 156.614 250.441 156.261 250.441H155.285V255.874H156.261ZM164.621 254.438C164.621 254.532 164.614 254.669 164.601 254.849H160.748C160.815 255.226 160.967 255.516 161.204 255.719C161.444 255.923 161.754 256.024 162.134 256.024C162.648 256.024 162.99 255.838 163.16 255.464H164.491C164.341 255.991 164.054 256.396 163.63 256.68C163.21 256.96 162.695 257.1 162.084 257.1C161.347 257.1 160.738 256.852 160.258 256.355C159.781 255.858 159.543 255.219 159.543 254.438C159.543 253.658 159.781 253.019 160.258 252.522C160.738 252.025 161.347 251.777 162.084 251.777C162.821 251.777 163.428 252.025 163.905 252.522C164.382 253.019 164.621 253.658 164.621 254.438ZM162.96 253.148C162.733 252.951 162.441 252.852 162.084 252.852C161.727 252.852 161.434 252.951 161.204 253.148C160.974 253.341 160.825 253.618 160.758 253.978H163.405C163.338 253.618 163.19 253.341 162.96 253.148ZM168.468 257.1C167.858 257.1 167.346 256.852 166.932 256.355V259.562H165.701V251.877H166.932V252.522C167.346 252.025 167.858 251.777 168.468 251.777C169.175 251.777 169.762 252.027 170.229 252.527C170.696 253.024 170.93 253.661 170.93 254.438C170.93 255.216 170.696 255.854 170.229 256.355C169.762 256.852 169.175 257.1 168.468 257.1ZM167.322 255.549C167.586 255.833 167.918 255.974 168.318 255.974C168.718 255.974 169.048 255.833 169.309 255.549C169.569 255.266 169.699 254.895 169.699 254.438C169.699 253.982 169.569 253.611 169.309 253.328C169.048 253.044 168.718 252.903 168.318 252.903C167.918 252.903 167.586 253.046 167.322 253.333C167.062 253.616 166.932 253.985 166.932 254.438C166.932 254.892 167.062 255.262 167.322 255.549ZM176.133 256.355C175.639 256.852 175.015 257.1 174.262 257.1C173.508 257.1 172.884 256.852 172.39 256.355C171.897 255.854 171.65 255.216 171.65 254.438C171.65 253.661 171.897 253.024 172.39 252.527C172.884 252.027 173.508 251.777 174.262 251.777C175.015 251.777 175.639 252.027 176.133 252.527C176.626 253.024 176.873 253.661 176.873 254.438C176.873 255.216 176.626 255.854 176.133 256.355ZM173.266 255.549C173.53 255.833 173.861 255.974 174.262 255.974C174.662 255.974 174.992 255.833 175.252 255.549C175.512 255.266 175.642 254.895 175.642 254.438C175.642 253.982 175.512 253.611 175.252 253.328C174.992 253.044 174.662 252.903 174.262 252.903C173.861 252.903 173.53 253.046 173.266 253.333C173.006 253.616 172.876 253.985 172.876 254.438C172.876 254.892 173.006 255.262 173.266 255.549ZM181.986 255.524C181.986 256.004 181.79 256.388 181.396 256.675C181.006 256.958 180.505 257.1 179.895 257.1C179.238 257.1 178.698 256.94 178.274 256.62C177.854 256.3 177.644 255.863 177.644 255.309H178.924C178.924 255.576 179.013 255.781 179.19 255.924C179.37 256.068 179.605 256.139 179.895 256.139C180.155 256.139 180.357 256.093 180.5 255.999C180.644 255.903 180.716 255.761 180.716 255.574C180.716 255.427 180.66 255.309 180.55 255.219C180.44 255.129 180.297 255.062 180.12 255.019C179.947 254.972 179.753 254.93 179.54 254.894C179.33 254.857 179.118 254.807 178.904 254.744C178.694 254.68 178.501 254.599 178.324 254.498C178.151 254.395 178.009 254.245 177.899 254.048C177.789 253.848 177.734 253.606 177.734 253.323C177.734 252.856 177.924 252.482 178.304 252.202C178.684 251.919 179.165 251.777 179.745 251.777C180.359 251.777 180.871 251.944 181.281 252.277C181.691 252.607 181.896 253.018 181.896 253.508H180.615C180.615 253.291 180.532 253.111 180.365 252.968C180.202 252.821 179.995 252.747 179.745 252.747C179.511 252.747 179.325 252.794 179.185 252.888C179.045 252.981 178.974 253.109 178.974 253.273C178.974 253.389 179.018 253.488 179.105 253.568C179.191 253.645 179.305 253.703 179.445 253.743C179.585 253.78 179.745 253.82 179.925 253.863C180.108 253.903 180.294 253.941 180.48 253.978C180.667 254.012 180.851 254.068 181.031 254.148C181.214 254.225 181.376 254.317 181.516 254.423C181.656 254.527 181.769 254.674 181.856 254.864C181.943 255.05 181.986 255.271 181.986 255.524ZM183.727 250.851C183.507 250.851 183.324 250.778 183.177 250.631C183.034 250.484 182.962 250.303 182.962 250.086C182.962 249.866 183.034 249.682 183.177 249.535C183.324 249.389 183.507 249.315 183.727 249.315C183.951 249.315 184.134 249.389 184.278 249.535C184.424 249.682 184.498 249.866 184.498 250.086C184.498 250.303 184.424 250.484 184.278 250.631C184.134 250.778 183.951 250.851 183.727 250.851ZM184.343 257H183.112V251.877H184.343V257ZM187.315 255.249C187.315 255.499 187.376 255.683 187.5 255.799C187.623 255.916 187.816 255.974 188.08 255.974C188.28 255.974 188.469 255.944 188.645 255.884V256.98C188.399 257.06 188.128 257.1 187.835 257.1C187.568 257.1 187.333 257.07 187.129 257.01C186.926 256.953 186.743 256.86 186.579 256.73C186.419 256.6 186.296 256.418 186.209 256.185C186.125 255.948 186.084 255.663 186.084 255.329V252.953H185.263V251.877H186.084V250.341H187.315V251.877H188.645V252.953H187.315V255.249Z" fill="white"/>
<defs>
<filter id="filter0_ddi_413_774" x="0.938198" y="0.623592" width="341.124" height="397.124" filterUnits="userSpaceOnUse" color-interpolation-filters="sRGB">
<feFlood flood-opacity="0" result="BackgroundImageFix"/>
<feColorMatrix in="SourceAlpha" type="matrix" values="0 0 0 0 0 0 0 0 0 0 0 0 0 0 0 0 0 0 127 0" result="hardAlpha"/>
<feOffset dy="5.68539"/>
<feGaussianBlur stdDeviation="22.0309"/>
<feComposite in2="hardAlpha" operator="out"/>
<feColorMatrix type="matrix" values="0 0 0 0 0.623529 0 0 0 0 0.266667 0 0 0 0 1 0 0 0 0.45 0"/>
<feBlend mode="normal" in2="BackgroundImageFix" result="effect1_dropShadow_413_774"/>
<feColorMatrix in="SourceAlpha" type="matrix" values="0 0 0 0 0 0 0 0 0 0 0 0 0 0 0 0 0 0 127 0" result="hardAlpha"/>
<feOffset dy="5.68539"/>
<feGaussianBlur stdDeviation="2.8427"/>
<feComposite in2="hardAlpha" operator="out"/>
<feColorMatrix type="matrix" values="0 0 0 0 0 0 0 0 0 0 0 0 0 0 0 0 0 0 0.25 0"/>
<feBlend mode="normal" in2="effect1_dropShadow_413_774" result="effect2_dropShadow_413_774"/>
<feBlend mode="normal" in="SourceGraphic" in2="effect2_dropShadow_413_774" result="shape"/>
<feColorMatrix in="SourceAlpha" type="matrix" values="0 0 0 0 0 0 0 0 0 0 0 0 0 0 0 0 0 0 127 0" result="hardAlpha"/>
<feOffset/>
<feGaussianBlur stdDeviation="8.52809"/>
<feComposite in2="hardAlpha" operator="arithmetic" k2="-1" k3="1"/>
<feColorMatrix type="matrix" values="0 0 0 0 0.55508 0 0 0 0 0.133333 0 0 0 0 1 0 0 0 0.72 0"/>
<feBlend mode="normal" in2="shape" result="effect3_innerShadow_413_774"/>
</filter>
<filter id="filter1_d_413_774" x="142.551" y="83" width="3.90039" height="6.3" filterUnits="userSpaceOnUse" color-interpolation-filters="sRGB">
<feFlood flood-opacity="0" result="BackgroundImageFix"/>
<feColorMatrix in="SourceAlpha" type="matrix" values="0 0 0 0 0 0 0 0 0 0 0 0 0 0 0 0 0 0 127 0" result="hardAlpha"/>
<feOffset dy="0.3"/>
<feComposite in2="hardAlpha" operator="out"/>
<feColorMatrix type="matrix" values="0 0 0 0 1 0 0 0 0 1 0 0 0 0 1 0 0 0 0.25 0"/>
<feBlend mode="normal" in2="BackgroundImageFix" result="effect1_dropShadow_413_774"/>
<feBlend mode="normal" in="SourceGraphic" in2="effect1_dropShadow_413_774" result="shape"/>
</filter>
<linearGradient id="paint0_linear_413_774" x1="144.57" y1="80.252" x2="144.57" y2="91.7789" gradientUnits="userSpaceOnUse">
<stop stop-color="#9F44FF"/>
<stop offset="1" stop-color="#FAFF00"/>
</linearGradient>
</defs>
</svg>
