<svg width="61" height="140" viewBox="0 0 61 140" fill="none" xmlns="http://www.w3.org/2000/svg">
                    <path opacity="0.5" d="M28.5253 140H27.1006V141.425H28.5253V140ZM60.1153 140V141.425H61.5399V140H60.1153ZM60.1153 0.574993H61.5399V-0.849663H60.1153V0.574993ZM32.4253 0.574993V-0.849663H31.9714L31.6012 -0.587147L32.4253 0.574993ZM0.250254 23.39L-0.573809 22.2279L-1.1744 22.6537V23.39H0.250254ZM0.250254 50.3H-1.1744V52.9366L1.031 51.4917L0.250254 50.3ZM28.5253 31.775H29.9499V29.1384L27.7445 30.5833L28.5253 31.775ZM28.5253 141.425H60.1153V138.575H28.5253V141.425ZM61.5399 140V0.574993H58.6906V140H61.5399ZM60.1153 -0.849663H32.4253V1.99965H60.1153V-0.849663ZM31.6012 -0.587147L-0.573809 22.2279L1.07432 24.5521L33.2493 1.73713L31.6012 -0.587147ZM-1.1744 23.39V50.3H1.67491V23.39H-1.1744ZM1.031 51.4917L29.306 32.9667L27.7445 30.5833L-0.530496 49.1083L1.031 51.4917ZM27.1006 31.775V140H29.9499V31.775H27.1006Z" fill="url(#paint0_linear_401_14)"/>
                    <defs>
                    <linearGradient id="paint0_linear_401_14" x1="36" y1="-25.7556" x2="36" y2="132.467" gradientUnits="userSpaceOnUse">
                    <stop stop-color="white"/>
                    <stop offset="1" stop-color="white" stop-opacity="0"/>
                    </linearGradient>
                    </defs>
                  </svg>