<svg width="106" height="142" viewBox="0 0 106 142" fill="none" xmlns="http://www.w3.org/2000/svg">
<path opacity="0.5" d="M0.54459 142H-0.880068V143.425H0.54459V142ZM105.845 142V143.425H107.269V142H105.845ZM105.845 118.015H107.269V116.59H105.845V118.015ZM51.6346 118.015L50.6386 116.996L48.1398 119.44H51.6346V118.015ZM77.9596 92.275L76.9709 91.2492L76.9636 91.2564L77.9596 92.275ZM4.24959 50.35L2.8266 50.281L2.75418 51.7747H4.24959V50.35ZM32.9146 50.35V51.7747H34.1823L34.3296 50.5156L32.9146 50.35ZM51.6346 82.915L52.6696 83.894L52.6699 83.8936L51.6346 82.915ZM0.54459 136.93L-0.490429 135.951L-0.880068 136.363V136.93H0.54459ZM0.54459 143.425H105.845V140.575H0.54459V143.425ZM107.269 142V118.015H104.42V142H107.269ZM105.845 116.59H51.6346V119.44H105.845V116.59ZM52.6306 119.034L78.9556 93.2936L76.9636 91.2564L50.6386 116.996L52.6306 119.034ZM78.9483 93.3007C95.1974 77.6389 106.294 62.0728 106.294 42.94H103.445C103.445 60.8572 93.0918 75.7111 76.9709 91.2492L78.9483 93.3007ZM106.294 42.94C106.294 30.0159 101.775 19.0319 93.1978 11.2917C84.6347 3.56463 72.1727 -0.799664 56.5096 -0.799664V2.04965C71.6565 2.04965 83.3745 6.26536 91.2889 13.4071C99.1887 20.5356 103.445 30.7091 103.445 42.94H106.294ZM56.5096 -0.799664C40.6449 -0.799664 27.5875 3.66628 18.2902 12.3825C8.98926 21.1022 3.62 33.9172 2.8266 50.281L5.67258 50.419C6.43918 34.6078 11.5999 22.5603 20.239 14.4612C28.8816 6.35871 41.1743 2.04965 56.5096 2.04965V-0.799664ZM4.24959 51.7747H32.9146V48.9253H4.24959V51.7747ZM34.3296 50.5156C35.3851 41.4962 37.8092 35.4498 41.2773 31.6664C44.7004 27.9322 49.3015 26.2297 55.1446 26.2297V23.3803C48.7027 23.3803 43.2613 25.2853 39.1769 29.7411C35.1375 34.1477 32.5891 40.8738 31.4996 50.1844L34.3296 50.5156ZM55.1446 26.2297C60.8923 26.2297 65.1144 27.983 67.907 30.9283C70.7109 33.8856 72.2449 38.2251 72.2449 43.72H75.0943C75.0943 37.7099 73.4108 32.5919 69.9747 28.9679C66.5273 25.332 61.4869 23.3803 55.1446 23.3803V26.2297ZM72.2449 43.72C72.2449 55.7735 64.069 67.6858 50.5992 81.9364L52.6699 83.8936C66.1102 69.6742 75.0943 57.0165 75.0943 43.72H72.2449ZM50.5996 81.936L-0.490429 135.951L1.57961 137.909L52.6696 83.894L50.5996 81.936ZM-0.880068 136.93V142H1.96925V136.93H-0.880068Z" fill="url(#paint0_linear_408_418)"/>
<defs>
<linearGradient id="paint0_linear_408_418" x1="56" y1="-23.7556" x2="56" y2="134.467" gradientUnits="userSpaceOnUse">
<stop stop-color="white"/>
<stop offset="1" stop-color="white" stop-opacity="0"/>
</linearGradient>
</defs>
</svg>
