     <svg width="532" height="517" viewBox="0 0 532 517" fill="none" xmlns="http://www.w3.org/2000/svg">
                    <g opacity="0.5" filter="url(#filter0_ddd_413_650)">
                    <path d="M176.222 415.229L30.0627 239.448C29.6103 238.931 29.0353 238.527 28.3901 238.274C27.7449 238.02 27.0501 237.926 26.3692 237.999C25.6883 238.071 25.0429 238.309 24.492 238.69C23.9411 239.07 23.5023 239.582 23.2156 240.178L9.54503 270.883C8.56795 273.047 8.24122 275.453 8.60141 277.832C8.96159 280.21 9.99448 282.468 11.5845 284.351L155.615 457.851C157.205 459.734 158.238 461.992 158.598 464.37C158.958 466.749 158.631 469.155 157.654 471.319L144.936 499.885C144.303 501.307 143.293 502.669 143.307 504.226C143.307 504.24 143.307 504.253 143.307 504.267C143.323 505.072 143.589 505.862 144.071 506.533C144.553 507.205 145.228 507.726 146.008 508.029C146.118 508.072 146.229 508.11 146.341 508.143C147.695 508.547 149.15 508.204 150.562 508.149L375.748 499.395C378.236 499.314 380.627 498.566 382.659 497.234C384.691 495.902 386.283 494.039 387.26 491.85L420.301 417.639C420.552 417.027 420.639 416.358 420.553 415.694C420.467 415.03 420.212 414.391 419.811 413.837C419.409 413.282 418.874 412.829 418.254 412.519C417.634 412.209 416.949 412.052 416.262 412.062L187.594 420.292C185.45 420.38 183.297 419.966 181.318 419.085C179.339 418.204 177.591 416.881 176.222 415.229M283.649 189.768C281.748 188.922 280.061 187.668 278.717 186.106C278.641 186.018 278.497 186.037 278.45 186.144V186.144C278.402 186.251 278.259 186.271 278.185 186.181L132.158 10.1375C131.721 9.5943 131.149 9.16636 130.499 8.89601C129.849 8.62566 129.143 8.52227 128.451 8.59608C127.759 8.6699 127.106 8.91836 126.555 9.31686C126.004 9.71536 125.575 10.2501 125.311 10.8681L111.682 41.4799C110.716 43.6598 110.391 46.0747 110.743 48.4645C111.095 50.8542 112.111 53.128 113.68 55.0408L258.335 228.707C259.926 230.61 260.955 232.885 261.308 235.28C261.661 237.674 261.323 240.094 260.333 242.268L246.704 272.88C246.421 273.49 246.311 274.166 246.383 274.842C246.456 275.518 246.708 276.17 247.116 276.733C247.524 277.297 248.074 277.752 248.71 278.055C249.346 278.357 250.046 278.496 250.743 278.457L478.036 269.392C480.496 269.302 482.859 268.554 484.866 267.232C486.873 265.909 488.445 264.063 489.409 261.896L522.45 187.686C522.718 187.085 522.82 186.422 522.747 185.76C522.674 185.099 522.429 184.461 522.034 183.906C521.639 183.352 521.108 182.899 520.491 182.592C519.874 182.285 519.191 182.133 518.508 182.152L289.925 190.975C287.781 191.063 285.628 190.649 283.649 189.768ZM81.1105 124.793L227.123 300.819C227.184 300.893 227.303 300.851 227.305 300.756V300.756C227.307 300.661 227.427 300.619 227.489 300.691C228.83 302.245 230.513 303.493 232.407 304.337C234.386 305.218 236.539 305.632 238.683 305.544L467.171 297.456C467.867 297.417 468.568 297.556 469.204 297.858C469.84 298.161 470.389 298.616 470.797 299.18C471.205 299.743 471.458 300.395 471.531 301.071C471.603 301.747 471.492 302.423 471.21 303.033L438.169 377.244C437.191 379.416 435.602 381.263 433.577 382.579C431.552 383.894 429.172 384.627 426.699 384.697L199.391 393.533C198.695 393.572 197.994 393.433 197.358 393.131C196.722 392.828 196.173 392.373 195.765 391.809C195.357 391.246 195.104 390.594 195.032 389.918C194.959 389.242 195.07 388.566 195.352 387.956L208.982 357.344C210.026 355.078 210.359 352.544 209.94 350.049C209.521 347.554 208.368 345.206 206.621 343.288L62.5497 169.882C60.9689 167.955 59.9502 165.662 59.6051 163.254C59.26 160.846 59.6017 158.416 60.5928 156.228L74.2634 125.523C74.5277 124.905 74.9564 124.371 75.5071 123.972C76.0578 123.574 76.7115 123.325 77.4033 123.251C78.0951 123.177 78.801 123.281 79.4513 123.551C80.1015 123.822 80.6735 124.25 81.1105 124.793Z" stroke="#F7FAFF" stroke-width="0.989196"/>
                    </g>
                    <defs>
                    <filter id="filter0_ddd_413_650" x="0.166683" y="0.280209" width="530.895" height="516.349" filterUnits="userSpaceOnUse" color-interpolation-filters="sRGB">
                    <feFlood flood-opacity="0" result="BackgroundImageFix"/>
                    <feColorMatrix in="SourceAlpha" type="matrix" values="0 0 0 0 0 0 0 0 0 0 0 0 0 0 0 0 0 0 127 0" result="hardAlpha"/>
                    <feOffset/>
                    <feGaussianBlur stdDeviation="3.89908"/>
                    <feColorMatrix type="matrix" values="0 0 0 0 0.623529 0 0 0 0 0.266667 0 0 0 0 1 0 0 0 1 0"/>
                    <feBlend mode="normal" in2="BackgroundImageFix" result="effect1_dropShadow_413_650"/>
                    <feColorMatrix in="SourceAlpha" type="matrix" values="0 0 0 0 0 0 0 0 0 0 0 0 0 0 0 0 0 0 127 0" result="hardAlpha"/>
                    <feOffset/>
                    <feGaussianBlur stdDeviation="2.12677"/>
                    <feColorMatrix type="matrix" values="0 0 0 0 0.623529 0 0 0 0 0.266667 0 0 0 0 1 0 0 0 1 0"/>
                    <feBlend mode="normal" in2="effect1_dropShadow_413_650" result="effect2_dropShadow_413_650"/>
                    <feColorMatrix in="SourceAlpha" type="matrix" values="0 0 0 0 0 0 0 0 0 0 0 0 0 0 0 0 0 0 127 0" result="hardAlpha"/>
                    <feOffset/>
                    <feGaussianBlur stdDeviation="0.708924"/>
                    <feColorMatrix type="matrix" values="0 0 0 0 0.623529 0 0 0 0 0.266667 0 0 0 0 1 0 0 0 1 0"/>
                    <feBlend mode="normal" in2="effect2_dropShadow_413_650" result="effect3_dropShadow_413_650"/>
                    <feBlend mode="normal" in="SourceGraphic" in2="effect3_dropShadow_413_650" result="shape"/>
                    </filter>
                    </defs>
                  </svg>